<svg xmlns="http://www.w3.org/2000/svg" viewBox="0 0 64 64" fill="none">
  <defs>
    <linearGradient id="g" x1="8" y1="8" x2="56" y2="56" gradientUnits="userSpaceOnUse">
      <stop stop-color="#1cc28a" />
      <stop offset="1" stop-color="#f3a712" />
    </linearGradient>
    <linearGradient id="m" x1="18" y1="16" x2="41" y2="44" gradientUnits="userSpaceOnUse">
      <stop stop-color="#e5fff5" />
      <stop offset="1" stop-color="#9ce9cc" />
    </linearGradient>
  </defs>
  <rect x="6" y="6" width="52" height="52" rx="14" fill="#0b1622" stroke="url(#g)" stroke-width="3" />
  <path
    d="M21 43V21h11.8c6.1 0 10.2 3.6 10.2 9.5 0 5.9-4.1 9.5-10.2 9.5h-5.9V43H21Zm5.9-8.1h4.9c3.2 0 5.2-1.6 5.2-4.5s-2-4.4-5.2-4.4h-4.9v8.9Z"
    fill="url(#m)"
  />
  <path
    d="M27 34h3.6l1.8-3.6 2.8 7.6 2.4-4.5H42"
    fill="none"
    stroke="#f3a712"
    stroke-width="2.5"
    stroke-linecap="round"
    stroke-linejoin="round"
  />
  <path
    d="M42.5 18.5c3.3-.4 6 2 6.4 5.3-3.3.4-6-2-6.4-5.3Z"
    fill="#1cc28a"
    stroke="#e5fff5"
    stroke-width="1"
  />
</svg>
